#tb 0: 1/25
0,          0,          0,        1,   152064, 0xd5ac29f3
0,          1,          1,        1,   152064, 0x95110a80
0,          2,          2,        1,   152064, 0xe5c59adc
0,          3,          3,        1,   152064, 0xe54df17c
0,          4,          4,        1,   152064, 0xab22e1ac
0,          5,          5,        1,   152064, 0x1a5db284
0,          6,          6,        1,   152064, 0x6ee1895d
0,          7,          7,        1,   152064, 0xb091cdff
0,          8,          8,        1,   152064, 0x4df4dcd3
0,          9,          9,        1,   152064, 0xb00ef49e
0,         10,         10,        1,   152064, 0x11b61be4
0,         11,         11,        1,   152064, 0x4e6d0b38
0,         12,         12,        1,   152064, 0x029d65db
0,         13,         13,        1,   152064, 0x8123d3a6
0,         14,         14,        1,   152064, 0xbdd3701f
0,         15,         15,        1,   152064, 0x958916e7
0,         16,         16,        1,   152064, 0xe7973608
0,         17,         17,        1,   152064, 0xd6be4edf
0,         18,         18,        1,   152064, 0x3571a14f
0,         19,         19,        1,   152064, 0xde150ddd
0,         20,         20,        1,   152064, 0xb5e33eb1
0,         21,         21,        1,   152064, 0xdd258601
0,         22,         22,        1,   152064, 0x4335a59d
0,         23,         23,        1,   152064, 0xa652cb99
0,         24,         24,        1,   152064, 0x42cc6e6e
0,         25,         25,        1,   152064, 0xc7540c4b
0,         26,         26,        1,   152064, 0xb495dc85
0,         27,         27,        1,   152064, 0x2aa11cfa
0,         28,         28,        1,   152064, 0x8e4d44de
0,         29,         29,        1,   152064, 0x2e9e550f
0,         30,         30,        1,   152064, 0x995839ee
0,         31,         31,        1,   152064, 0xb55647d7
0,         32,         32,        1,   152064, 0x7fc556f7
0,         33,         33,        1,   152064, 0x894f9acf
0,         34,         34,        1,   152064, 0x5ea68479
0,         35,         35,        1,   152064, 0x9d0fdb97
0,         36,         36,        1,   152064, 0x8e6d4cff
0,         37,         37,        1,   152064, 0xb315621c
0,         38,         38,        1,   152064, 0x307b23a1
0,         39,         39,        1,   152064, 0x41f246da
0,         40,         40,        1,   152064, 0x8af934d5
0,         41,         41,        1,   152064, 0x5d327ac0
0,         42,         42,        1,   152064, 0x49b46cdf
0,         43,         43,        1,   152064, 0x799eb970
0,         44,         44,        1,   152064, 0x424b88cc
0,         45,         45,        1,   152064, 0xfbcff8df
0,         46,         46,        1,   152064, 0x70f7c722
0,         47,         47,        1,   152064, 0x29a55d83
0,         48,         48,        1,   152064, 0xff2430be
0,         49,         49,        1,   152064, 0x02438701
